# xmcd
#
# Track frame offsets:
#       150
#       17746
#       33281
#       49331
#       65429
#       86567
#       99642
#       116109
#       133297
#       151603
#       169909
#       185840
#       202011
#       218433
#       234914
#       253847
#
# Disc length: 3646 seconds
#
# Revision: 1
# Processed by: cddbd v1.5.2PL0 Copyright (c) Steve Scherf et al.
# Submitted via: FreeDbEdit v0.1
#
DISCID=e10e3c10
DTITLE=Shania Twain - Come on Over
DYEAR=1900
DGENRE=Country
TTITLE0=Man! I Feel Like a Woman
TTITLE1=I'm Holdin' on to Love (To Save My Life)
TTITLE2=Love Gets Me Every Time
TTITLE3=Don't Be Stupid (You Know I Love You)
TTITLE4=From This Moment On
TTITLE5=Come on Over
TTITLE6=When
TTITLE7=Whatever You Do! Don't
TTITLE8=If You Wanna Touch Her, Ask!
TTITLE9=You're Still The One
TTITLE10=Honey, I'm Home
TTITLE11=That Don't Impress Me Much
TTITLE12=Black Eyes, Blue Tears
TTITLE13=I Won't Leave You Lonely
TTITLE14=Rock This Country!
TTITLE15=You've Got a Way
EXTD=
EXTT0=
EXTT1=
EXTT2=
EXTT3=
EXTT4=
EXTT5=
EXTT6=
EXTT7=
EXTT8=
EXTT9=
EXTT10=
EXTT11=
EXTT12=
EXTT13=
EXTT14=
EXTT15=
PLAYORDER=
